<mxfile host="app.diagrams.net" modified="2022-06-29T23:40:54.197Z" agent="5.0 (Windows NT 10.0; Win64; x64) AppleWebKit/537.36 (KHTML, like Gecko) Chrome/103.0.5060.53 Safari/537.36 Edg/103.0.1264.37" etag="0P15szYjgopFe-mEXLy-" version="20.0.4" type="github">
  <diagram id="H9-QVIB4ShXuoiM-LzIO" name="Page-1">
    <mxGraphModel dx="1422" dy="762" grid="1" gridSize="10" guides="1" tooltips="1" connect="1" arrows="1" fold="1" page="1" pageScale="1" pageWidth="827" pageHeight="1169" math="0" shadow="0">
      <root>
        <mxCell id="0" />
        <mxCell id="1" parent="0" />
        <mxCell id="6aTukIGOlWaT6OcC9Asg-4" value="" style="edgeStyle=orthogonalEdgeStyle;rounded=0;orthogonalLoop=1;jettySize=auto;html=1;entryX=0.5;entryY=0;entryDx=0;entryDy=0;" parent="1" source="6aTukIGOlWaT6OcC9Asg-1" target="6aTukIGOlWaT6OcC9Asg-5" edge="1">
          <mxGeometry relative="1" as="geometry">
            <mxPoint x="255" y="145" as="targetPoint" />
          </mxGeometry>
        </mxCell>
        <mxCell id="6aTukIGOlWaT6OcC9Asg-1" value="" style="ellipse;html=1;shape=startState;fillColor=#000000;strokeColor=#ff0000;" parent="1" vertex="1">
          <mxGeometry x="240" y="80" width="30" height="30" as="geometry" />
        </mxCell>
        <mxCell id="6aTukIGOlWaT6OcC9Asg-9" value="" style="edgeStyle=orthogonalEdgeStyle;rounded=0;orthogonalLoop=1;jettySize=auto;html=1;" parent="1" source="6aTukIGOlWaT6OcC9Asg-5" target="6aTukIGOlWaT6OcC9Asg-8" edge="1">
          <mxGeometry relative="1" as="geometry" />
        </mxCell>
        <mxCell id="6aTukIGOlWaT6OcC9Asg-5" value="stop moving" style="rounded=1;whiteSpace=wrap;html=1;arcSize=40;fontColor=#000000;fillColor=#ffffc0;strokeColor=#ff0000;shadow=0;" parent="1" vertex="1">
          <mxGeometry x="212.5" y="150" width="85" height="20" as="geometry" />
        </mxCell>
        <mxCell id="6aTukIGOlWaT6OcC9Asg-8" value="press F1" style="whiteSpace=wrap;html=1;fillColor=#ffffc0;strokeColor=#ff0000;fontColor=#000000;rounded=1;arcSize=40;shadow=0;" parent="1" vertex="1">
          <mxGeometry x="212.5" y="190" width="85" height="20" as="geometry" />
        </mxCell>
        <mxCell id="ns0NFeGbMul6Wa5SGoXw-6" value="" style="edgeStyle=orthogonalEdgeStyle;rounded=0;orthogonalLoop=1;jettySize=auto;html=1;exitX=0.5;exitY=1;exitDx=0;exitDy=0;" edge="1" parent="1" source="6aTukIGOlWaT6OcC9Asg-8" target="ns0NFeGbMul6Wa5SGoXw-5">
          <mxGeometry relative="1" as="geometry">
            <mxPoint x="255" y="380" as="sourcePoint" />
          </mxGeometry>
        </mxCell>
        <mxCell id="ns0NFeGbMul6Wa5SGoXw-5" value="wait for 7 s&lt;br&gt;if InCombat&amp;nbsp; is true, return" style="whiteSpace=wrap;html=1;fillColor=#ffffc0;strokeColor=#ff0000;fontColor=#000000;rounded=1;arcSize=40;shadow=0;" vertex="1" parent="1">
          <mxGeometry x="177.5" y="230" width="155" height="40" as="geometry" />
        </mxCell>
        <mxCell id="ns0NFeGbMul6Wa5SGoXw-7" value="press F2" style="whiteSpace=wrap;html=1;fillColor=#ffffc0;strokeColor=#ff0000;fontColor=#000000;rounded=1;arcSize=40;shadow=0;" vertex="1" parent="1">
          <mxGeometry x="212.5" y="290" width="85" height="20" as="geometry" />
        </mxCell>
        <mxCell id="ns0NFeGbMul6Wa5SGoXw-8" value="" style="edgeStyle=orthogonalEdgeStyle;rounded=0;orthogonalLoop=1;jettySize=auto;html=1;exitX=0.5;exitY=1;exitDx=0;exitDy=0;entryX=0.5;entryY=0;entryDx=0;entryDy=0;" edge="1" parent="1" source="ns0NFeGbMul6Wa5SGoXw-5" target="ns0NFeGbMul6Wa5SGoXw-7">
          <mxGeometry relative="1" as="geometry">
            <mxPoint x="265" y="220" as="sourcePoint" />
            <mxPoint x="265" y="240" as="targetPoint" />
          </mxGeometry>
        </mxCell>
        <mxCell id="ns0NFeGbMul6Wa5SGoXw-9" value="wait for 7 s&lt;br&gt;if InCombat&amp;nbsp; is true, return" style="whiteSpace=wrap;html=1;fillColor=#ffffc0;strokeColor=#ff0000;fontColor=#000000;rounded=1;arcSize=40;shadow=0;" vertex="1" parent="1">
          <mxGeometry x="177.5" y="330" width="155" height="40" as="geometry" />
        </mxCell>
        <mxCell id="ns0NFeGbMul6Wa5SGoXw-10" value="" style="edgeStyle=orthogonalEdgeStyle;rounded=0;orthogonalLoop=1;jettySize=auto;html=1;exitX=0.5;exitY=1;exitDx=0;exitDy=0;entryX=0.5;entryY=0;entryDx=0;entryDy=0;" edge="1" parent="1" source="ns0NFeGbMul6Wa5SGoXw-7" target="ns0NFeGbMul6Wa5SGoXw-9">
          <mxGeometry relative="1" as="geometry">
            <mxPoint x="265" y="280" as="sourcePoint" />
            <mxPoint x="265" y="300" as="targetPoint" />
          </mxGeometry>
        </mxCell>
        <mxCell id="ns0NFeGbMul6Wa5SGoXw-11" value="LastBuffed = now" style="whiteSpace=wrap;html=1;fillColor=#ffffc0;strokeColor=#ff0000;fontColor=#000000;rounded=1;arcSize=40;shadow=0;" vertex="1" parent="1">
          <mxGeometry x="206.25" y="390" width="97.5" height="20" as="geometry" />
        </mxCell>
        <mxCell id="ns0NFeGbMul6Wa5SGoXw-12" value="" style="edgeStyle=orthogonalEdgeStyle;rounded=0;orthogonalLoop=1;jettySize=auto;html=1;exitX=0.5;exitY=1;exitDx=0;exitDy=0;entryX=0.5;entryY=0;entryDx=0;entryDy=0;" edge="1" parent="1" source="ns0NFeGbMul6Wa5SGoXw-9" target="ns0NFeGbMul6Wa5SGoXw-11">
          <mxGeometry relative="1" as="geometry">
            <mxPoint x="265" y="320" as="sourcePoint" />
            <mxPoint x="265" y="340" as="targetPoint" />
          </mxGeometry>
        </mxCell>
        <mxCell id="ns0NFeGbMul6Wa5SGoXw-13" value="" style="ellipse;html=1;shape=endState;fillColor=#000000;strokeColor=#ff0000;rounded=1;" vertex="1" parent="1">
          <mxGeometry x="240" y="430" width="30" height="30" as="geometry" />
        </mxCell>
        <mxCell id="ns0NFeGbMul6Wa5SGoXw-14" value="" style="edgeStyle=orthogonalEdgeStyle;rounded=0;orthogonalLoop=1;jettySize=auto;html=1;exitX=0.5;exitY=1;exitDx=0;exitDy=0;entryX=0.5;entryY=0;entryDx=0;entryDy=0;" edge="1" parent="1" source="ns0NFeGbMul6Wa5SGoXw-11" target="ns0NFeGbMul6Wa5SGoXw-13">
          <mxGeometry relative="1" as="geometry">
            <mxPoint x="265" y="380" as="sourcePoint" />
            <mxPoint x="265" y="400" as="targetPoint" />
          </mxGeometry>
        </mxCell>
        <mxCell id="ns0NFeGbMul6Wa5SGoXw-16" value="CheckIfActionCanRun&lt;br&gt;LastBuffed &amp;gt; 31? true: false" style="whiteSpace=wrap;html=1;fillColor=#ffffc0;strokeColor=#ff0000;fontColor=#000000;rounded=1;arcSize=40;shadow=0;" vertex="1" parent="1">
          <mxGeometry x="390" y="390" width="180" height="30" as="geometry" />
        </mxCell>
        <mxCell id="ns0NFeGbMul6Wa5SGoXw-17" value="" style="endArrow=none;dashed=1;html=1;rounded=0;exitX=1;exitY=0.5;exitDx=0;exitDy=0;entryX=0;entryY=0.5;entryDx=0;entryDy=0;" edge="1" parent="1" source="ns0NFeGbMul6Wa5SGoXw-11" target="ns0NFeGbMul6Wa5SGoXw-16">
          <mxGeometry width="50" height="50" relative="1" as="geometry">
            <mxPoint x="390" y="370" as="sourcePoint" />
            <mxPoint x="440" y="320" as="targetPoint" />
          </mxGeometry>
        </mxCell>
        <mxCell id="ns0NFeGbMul6Wa5SGoXw-19" value="" style="edgeStyle=orthogonalEdgeStyle;rounded=0;orthogonalLoop=1;jettySize=auto;html=1;exitX=1;exitY=0.5;exitDx=0;exitDy=0;" edge="1" parent="1" source="ns0NFeGbMul6Wa5SGoXw-16">
          <mxGeometry relative="1" as="geometry">
            <mxPoint x="265" y="420" as="sourcePoint" />
            <mxPoint x="630" y="405" as="targetPoint" />
          </mxGeometry>
        </mxCell>
        <mxCell id="ns0NFeGbMul6Wa5SGoXw-20" value="out to UI" style="text;html=1;strokeColor=none;fillColor=none;align=center;verticalAlign=middle;whiteSpace=wrap;rounded=0;" vertex="1" parent="1">
          <mxGeometry x="570" y="380" width="60" height="30" as="geometry" />
        </mxCell>
      </root>
    </mxGraphModel>
  </diagram>
</mxfile>
